<?xml version="1.0" encoding="utf-8"?>
<!-- Generator: Adobe Illustrator 22.1.0, SVG Export Plug-In . SVG Version: 6.00 Build 0)  -->
<svg version="1.1" id="Layer_1" xmlns="http://www.w3.org/2000/svg" xmlns:xlink="http://www.w3.org/1999/xlink" x="0px" y="0px"
	 viewBox="0 0 1055.4 515.7" style="enable-background:new 0 0 1055.4 515.7;" xml:space="preserve">
<style type="text/css">
	.st0{enable-background:new    ;}
	.st1{fill:#FFFFFF;}
</style>
<g id="Reveal" transform="translate(1.5)">
	<g transform="matrix(1, 0, 0, 1, -1.5, 0)">
		<g class="st0">
			<path class="st1" d="M49.8,429.5h-0.8c-0.5-3.5-2-6.6-4.6-9.2c-2.6-2.6-6.1-4-10.3-4c-2.8,0-5.3,0.7-7.4,2
				c-2.2,1.3-3.8,3.1-5,5.4c-1.2,2.3-1.8,4.9-1.8,7.8c0,2.3,0.4,4.3,1.1,6s1.8,3.3,3.1,4.7c1.4,1.3,3,2.6,4.9,3.8
				c1.9,1.2,4.4,2.6,7.6,4.4c5.3,2.9,9.5,5.8,12.4,8.8c3,2.9,4.4,6.9,4.4,12c0,3.1-0.8,6.1-2.4,9s-4,5.2-7.2,7.1
				c-3.2,1.8-7.2,2.8-12,2.8c-3,0-5.6-0.3-7.9-1c-2.3-0.6-4.6-1.5-7-2.7c-1-0.3-1.7-0.5-2-0.5c-0.7,0-1.1,0.2-1.4,0.7
				c-0.2,0.5-0.5,1.6-0.9,3.2h-0.8v-18.2h0.8c1.2,5.3,3.5,9.4,6.9,12.1c3.4,2.7,7.6,4.1,12.5,4.1c3.7,0,6.6-0.7,8.9-2.1
				c2.2-1.4,3.8-3.1,4.6-5c0.9-2,1.3-3.9,1.3-5.9c0-4.1-1.2-7.4-3.7-10s-6.3-5.2-11.3-7.9c-3.5-1.9-6.1-3.4-7.7-4.4
				c-1.7-1.1-3.4-2.4-5.1-4.1c-1.7-1.7-3.1-3.7-4.1-5.9c-1-2.3-1.5-4.9-1.5-7.9c0-3.4,0.9-6.7,2.7-9.8c1.8-3.1,4.4-5.6,7.7-7.5
				c3.3-1.9,7.1-2.8,11.3-2.8c3.2,0,6.5,0.5,9.8,1.6c0.5,0.3,1.2,0.4,2.1,0.4c1.1,0,1.8-0.7,2.2-2.2h0.8V429.5z"/>
			<path class="st1" d="M116.6,448.8v-24.3c0-2.4-0.6-4.3-1.9-5.8c-1.3-1.5-3.3-2.3-6-2.3v-0.8h23.1v0.8c-2.7,0-4.7,0.7-5.9,2.2
				c-1.3,1.5-1.9,3.4-1.9,5.8v54.9c0,5.3,2.6,8,7.8,8v0.8h-23.1v-0.8c2.5,0,4.4-0.7,5.8-2c1.4-1.3,2.1-3.3,2.1-5.9V451H74.9v28.4
				c0,2.5,0.7,4.5,2.1,5.9c1.4,1.4,3.3,2.1,5.7,2.1v0.8H59.7v-0.8c2.5,0,4.4-0.7,5.7-2.1c1.3-1.4,2-3.4,2-5.9v-54.9
				c0-5.4-2.6-8.1-7.7-8.1v-0.8h23.1v0.8c-2.7,0-4.7,0.7-6,2.2c-1.3,1.5-1.9,3.4-1.9,5.8v24.3H116.6z"/>
			<path class="st1" d="M171.9,414.6l21.7,62.2c1.2,3.2,2.2,5.6,3.3,7c1,1.4,2,2.4,2.9,2.7c0.9,0.4,2.1,0.6,3.6,0.8v0.8h-23.7v-0.8
				c2.4,0,4.3-0.2,5.6-0.7c1.3-0.5,2-1.7,2-3.7c0-1.1-0.3-2.6-0.9-4.5c-0.1-0.3-0.2-0.5-0.2-0.6l-6.5-19.3h-25.2l-5.8,17.9
				c-0.8,2.4-1.2,4.4-1.2,5.9c0,2,0.5,3.4,1.5,4.1c1,0.7,2.5,1,4.3,1v0.8h-17.1v-0.8c2.4-0.2,4.4-1.2,5.8-2.8
				c1.5-1.6,2.7-4.1,3.8-7.4l20.5-62.5H171.9z M155.3,456h23.1l-11.8-34.5h-0.2L155.3,456z"/>
			<path class="st1" d="M208.3,416.4v-0.8h28c3.9,0,7.5,0.3,10.8,1c3.3,0.7,6.3,1.6,8.9,2.7c2.6,1.1,4.9,2.3,6.8,3.7
				c1.9,1.3,3.5,2.7,4.8,4.1c2.3,2.3,4.3,4.9,5.9,7.7c1.6,2.8,2.8,5.8,3.6,8.9c0.8,3.1,1.2,6.3,1.2,9.7c0,3.3-0.4,6.5-1.2,9.5
				c-0.8,3-1.9,5.8-3.4,8.3s-3.2,4.9-5.3,6.9s-4.4,3.9-7.2,5.6c-2.3,1.4-5,2.5-8,3.4c-3,0.9-7.1,1.3-12.3,1.3h-32.6v-0.8h1
				c2.3,0,4-0.9,5.1-2.6c1.1-1.7,1.7-3.5,1.7-5.4v-54.8c0-1.8-0.3-3.4-0.9-4.6c-0.6-1.2-1.4-2.2-2.4-2.7c-1-0.6-2.2-0.8-3.4-0.8
				H208.3z M223.6,419v57.6c0,2.8,0.5,4.9,1.4,6.2c0.9,1.3,2.3,2.2,4.2,2.6c1.9,0.4,4.7,0.6,8.4,0.6c5.3,0,9.7-0.5,13.3-1.6
				c3.6-1,7.1-3.3,10.5-6.9c2.5-2.7,4.5-5.9,6-9.8c1.5-3.8,2.3-8.5,2.3-14c0-4.3-0.6-8.6-1.8-12.8c-1.2-4.2-3.1-8-5.6-11.3
				c-2.8-3.7-6.4-6.6-10.8-8.7c-4.4-2.1-9.7-3.2-15.9-3.2C232.4,417.8,228.4,418.2,223.6,419z"/>
			<path class="st1" d="M365.5,451.9c0,6.8-1.7,13.1-5.1,19c-3.4,5.9-8,10.5-13.8,14c-5.8,3.5-12.3,5.2-19.3,5.2
				c-7.1,0-13.6-1.7-19.5-5.2c-5.9-3.5-10.6-8.1-14-14c-3.4-5.9-5.1-12.3-5.1-19.2c0-5.3,1-10.3,3-15c2-4.7,4.8-8.8,8.5-12.3
				c3.6-3.5,7.8-6.2,12.4-8.1c4.7-1.9,9.5-2.9,14.6-2.9c5,0,9.7,0.9,14.3,2.7c4.6,1.8,8.7,4.5,12.3,7.9s6.5,7.5,8.6,12.3
				S365.5,446.3,365.5,451.9z M356.8,452.1c0-9.7-1.7-17.2-5.1-22.7c-3.4-5.5-7.4-9.1-11.8-11c-4.5-1.9-8.7-2.8-12.6-2.8
				c-3.1,0-6.2,0.5-9.5,1.5c-3.3,1-6.5,2.8-9.6,5.5c-3.1,2.7-5.7,6.4-7.7,11.2c-2,4.8-3,10.8-3,17.9c0,6.2,0.8,11.7,2.5,16.3
				c1.7,4.7,3.9,8.5,6.9,11.4c2.9,2.9,6.1,5.1,9.6,6.4c3.5,1.3,7.1,1.9,10.9,1.9c3.4,0,6.8-0.6,10.3-1.8c3.5-1.2,6.6-3.2,9.5-5.9
				c2.9-2.7,5.2-6.4,7-11C355.9,464.5,356.8,458.8,356.8,452.1z"/>
			<path class="st1" d="M468.5,415.5v0.8c-1.5,0.3-2.8,0.8-3.9,1.7c-1.2,0.8-2.3,2.1-3.4,4c-1.1,1.9-2.3,4.5-3.5,8.1l-20.4,60h-0.7
				l-18.5-60h-0.2l-20.2,60h-0.7l-20.7-66.2c-0.8-2.3-1.7-4-2.7-5.1c-1.1-1.1-2-1.7-2.9-1.9c-0.9-0.2-1.9-0.4-3.2-0.5v-0.8h22.5v0.8
				c-2,0.1-3.5,0.7-4.5,1.8c-1,1.1-1.5,2.4-1.5,3.9c0,1.2,0.3,2.7,0.8,4.4l15.3,49.1h0.2l16.5-49.1l-0.7-2.2c-0.7-2.1-1.6-4-3-5.4
				c-1.3-1.5-3.4-2.3-6.2-2.4v-0.8h23.2v0.8c-2.6,0-4.3,0.7-5.1,2c-0.8,1.3-1.2,2.5-1.2,3.7c0,1.4,0.2,2.9,0.7,4.4l15.1,49.1h0.2
				l15.4-45.5c0.5-1.2,0.9-2.6,1.3-4.3c0.4-1.6,0.6-3,0.6-4.2c0-2.2-0.5-3.6-1.5-4.2c-1-0.6-2.5-0.9-4.7-1v-0.8H468.5z"/>
			<path class="st1" d="M507,416.4v-0.8h28c3.9,0,7.5,0.3,10.8,1c3.3,0.7,6.3,1.6,8.9,2.7c2.6,1.1,4.9,2.3,6.8,3.7
				c1.9,1.3,3.5,2.7,4.8,4.1c2.3,2.3,4.3,4.9,5.9,7.7c1.6,2.8,2.8,5.8,3.6,8.9c0.8,3.1,1.2,6.3,1.2,9.7c0,3.3-0.4,6.5-1.2,9.5
				c-0.8,3-1.9,5.8-3.4,8.3s-3.2,4.9-5.3,6.9s-4.4,3.9-7.2,5.6c-2.3,1.4-5,2.5-8,3.4c-3,0.9-7.1,1.3-12.3,1.3H507v-0.8h1
				c2.3,0,4-0.9,5.1-2.6c1.1-1.7,1.7-3.5,1.7-5.4v-54.8c0-1.8-0.3-3.4-0.9-4.6c-0.6-1.2-1.4-2.2-2.4-2.7c-1-0.6-2.2-0.8-3.4-0.8H507
				z M522.2,419v57.6c0,2.8,0.5,4.9,1.4,6.2c0.9,1.3,2.3,2.2,4.2,2.6c1.9,0.4,4.7,0.6,8.4,0.6c5.3,0,9.7-0.5,13.3-1.6
				c3.6-1,7.1-3.3,10.5-6.9c2.5-2.7,4.5-5.9,6-9.8c1.5-3.8,2.3-8.5,2.3-14c0-4.3-0.6-8.6-1.8-12.8c-1.2-4.2-3.1-8-5.6-11.3
				c-2.8-3.7-6.4-6.6-10.8-8.7c-4.4-2.1-9.7-3.2-15.9-3.2C531,417.8,527,418.2,522.2,419z"/>
			<path class="st1" d="M657.4,488.2h-15.2v-12l-0.2-0.2c-2.1,4.9-5.3,8.5-9.4,10.8c-4.2,2.3-8.6,3.4-13.1,3.4
				c-5.2,0-9.8-1.2-13.9-3.7c-4.1-2.5-7.2-5.5-9.1-9.1c-1.4-2.6-2.3-5.2-2.6-8c-0.4-2.8-0.5-5.7-0.5-8.7v-36.1c0-2.2-0.4-4-1.3-5.5
				c-0.9-1.5-3-2.3-6.2-2.6v-0.8h22.8v0.8c-3.4,0.4-5.5,1.4-6.4,2.9c-0.9,1.5-1.4,3.3-1.4,5.2V460c0,7.2,0.7,12.6,2.2,16
				c1.6,3.7,3.9,6.6,7.1,8.6c3.2,2.1,6.7,3.1,10.8,3.1c1.7,0,3.7-0.3,6-0.9c2.3-0.6,4.5-1.6,6.5-3c6-4.1,9-10.7,9-19.8v-39.7
				c0-2-0.5-3.8-1.4-5.3c-0.9-1.5-3.1-2.5-6.5-2.8v-0.8h23.2v0.8c-3.4,0.2-5.5,1.1-6.5,2.8c-1,1.7-1.4,3.4-1.4,5.2v55
				c0,1.9,0.3,3.4,1,4.5c0.6,1.1,1.5,1.9,2.7,2.3c1.1,0.5,2.5,0.8,4.2,1.1V488.2z"/>
			<path class="st1" d="M739.8,415.5v0.8c-1.8,0.2-3.3,0.6-4.4,1.1s-1.9,1.4-2.5,2.8c-0.6,1.4-0.9,3.4-0.9,6V490h-0.5l-55.8-62.2
				v44.7c0,3.7,0.1,6.5,0.4,8.3c0.3,1.8,0.7,3.1,1.3,3.9c1.2,1.7,3.3,2.6,6.4,2.8v0.8h-18.2v-0.8c2-0.1,3.6-0.5,4.8-1.3
				c1.1-0.8,1.9-2.2,2.4-4.2c0.5-2.1,0.7-5.2,0.7-9.3v-47.4l-2.4-2.7c-2.1-2.4-3.8-4-5.1-4.6c-1.3-0.6-2.9-1.1-4.8-1.5v-0.8h13.7
				l54.9,61.5v-46.9c0-3.5-0.1-6.1-0.4-7.9c-0.3-1.7-1-3.1-2.2-4.2c-1.2-1.1-3.1-1.6-5.6-1.7v-0.8H739.8z"/>
			<path class="st1" d="M813.1,430.6h-0.8c-1.1-4.7-3.8-8.4-8.4-11c-4.5-2.6-9.7-3.9-15.5-3.9c-3,0-6.3,0.5-9.7,1.4
				c-3.5,0.9-6.8,2.6-10.1,5.1c-3.3,2.5-6,6-8.2,10.7c-2.2,4.7-3.3,10.6-3.3,17.7c0,11.3,2.6,20.4,7.9,27.1
				c5.3,6.8,13.8,10.2,25.4,10.2c4.6,0,8-0.3,10.2-0.9c2.2-0.6,3.6-1.5,4.2-2.6c0.6-1.1,0.9-2.5,0.9-4.4v-13.3c0-3.2-0.7-5.2-2-6.3
				c-1.4-1-3.4-1.7-6.1-2v-0.8h23.6v0.8c-2.2,0.2-3.8,0.7-5,1.4c-1.2,0.7-2,1.6-2.4,2.7c-0.4,1.1-0.6,2.6-0.6,4.4v20.2
				c-7.2,1.9-14.7,2.9-22.4,2.9c-4,0-7.9-0.3-11.8-1c-3.9-0.7-7.9-2.1-12.1-4.4c-4.2-2.3-7.9-5.6-11.1-10.1
				c-4.8-6.7-7.3-14.2-7.3-22.6c0-4.9,0.9-9.7,2.7-14.3c1.8-4.6,4.5-8.8,7.9-12.5c3.4-3.7,7.6-6.6,12.6-8.7c5-2.1,10.5-3.2,16.5-3.2
				c2.3,0,4.6,0.2,6.9,0.5c2.2,0.3,5.6,0.9,10,1.9c1.7,0.4,3,0.6,3.7,0.6c1.6,0,2.8-0.8,3.6-2.4h0.8V430.6z"/>
			<path class="st1" d="M825.4,416.4v-0.8h43.3V427h-0.7c0-6.1-4.1-9.2-12.2-9.2h-15.1v33H854c2.6,0,5-0.4,7.1-1.3
				c2.1-0.9,3.3-2.8,3.6-5.9h0.7v16.5h-0.7c-0.3-1.9-0.9-3.3-1.7-4.3c-0.8-1-1.6-1.7-2.4-2c-0.8-0.3-1.5-0.5-2.1-0.5
				c-1.2-0.2-2.4-0.3-3.7-0.3h-14v25.8c0,1.9,0.4,3.6,1.1,5c0.7,1.4,2.5,2.1,5.2,2.1h10.8c2.6,0,4.7-0.4,6.4-1.1
				c1.7-0.8,3-1.8,4-3.2c1-1.3,1.8-3,2.4-4.9h0.7l-2.5,11.4h-43.3v-0.8h1c1.5,0,3.1-0.6,4.5-1.9c1.5-1.2,2.2-3.3,2.2-6.1v-54.7
				c0-2.2-0.5-4.2-1.5-5.8c-1-1.6-2.8-2.5-5.3-2.5H825.4z"/>
			<path class="st1" d="M955.4,451.9c0,6.8-1.7,13.1-5.1,19c-3.4,5.9-8,10.5-13.8,14c-5.8,3.5-12.3,5.2-19.3,5.2
				c-7.1,0-13.6-1.7-19.5-5.2c-5.9-3.5-10.6-8.1-14-14c-3.4-5.9-5.1-12.3-5.1-19.2c0-5.3,1-10.3,3-15c2-4.7,4.8-8.8,8.5-12.3
				c3.6-3.5,7.8-6.2,12.4-8.1c4.7-1.9,9.5-2.9,14.6-2.9c5,0,9.7,0.9,14.3,2.7c4.6,1.8,8.7,4.5,12.3,7.9s6.5,7.5,8.6,12.3
				S955.4,446.3,955.4,451.9z M946.7,452.1c0-9.7-1.7-17.2-5.1-22.7c-3.4-5.5-7.4-9.1-11.8-11c-4.5-1.9-8.7-2.8-12.6-2.8
				c-3.1,0-6.2,0.5-9.5,1.5c-3.3,1-6.5,2.8-9.6,5.5c-3.1,2.7-5.7,6.4-7.7,11.2c-2,4.8-3,10.8-3,17.9c0,6.2,0.8,11.7,2.5,16.3
				c1.7,4.7,3.9,8.5,6.9,11.4c2.9,2.9,6.1,5.1,9.6,6.4c3.5,1.3,7.1,1.9,10.9,1.9c3.4,0,6.8-0.6,10.3-1.8c3.5-1.2,6.6-3.2,9.5-5.9
				c2.9-2.7,5.2-6.4,7-11C945.8,464.5,946.7,458.8,946.7,452.1z"/>
			<path class="st1" d="M1039.6,415.5v0.8c-1.8,0.2-3.3,0.6-4.4,1.1s-1.9,1.4-2.5,2.8c-0.6,1.4-0.9,3.4-0.9,6V490h-0.5l-55.8-62.2
				v44.7c0,3.7,0.1,6.5,0.4,8.3c0.3,1.8,0.7,3.1,1.3,3.9c1.2,1.7,3.3,2.6,6.4,2.8v0.8h-18.2v-0.8c2-0.1,3.6-0.5,4.8-1.3
				c1.1-0.8,1.9-2.2,2.4-4.2c0.5-2.1,0.7-5.2,0.7-9.3v-47.4l-2.4-2.7c-2.1-2.4-3.8-4-5.1-4.6c-1.3-0.6-2.9-1.1-4.8-1.5v-0.8h13.7
				l54.9,61.5v-46.9c0-3.5-0.1-6.1-0.4-7.9c-0.3-1.7-1-3.1-2.2-4.2c-1.2-1.1-3.1-1.6-5.6-1.7v-0.8H1039.6z"/>
		</g>
	</g>
	<g transform="matrix(1, 0, 0, 1, -1.5, 0)">
		<path id="Path_28-2" class="st1" d="M31.8,262.5h32.8v-14.8c-8.1,0-14.7-6.5-14.8-14.6c0,0,0-0.1,0-0.1l2.5-88.6h35.8l42.7,88.6
			c2.8,7.9-2.3,14.8-10.3,14.8v14.8h228.2v-59.1h-9.8c0,16.2-8.9,29.5-19.7,29.5h-85.3v-88.6h95.2c5.4,0,9.8,6.6,9.8,14.8h9.8v-55.8
			h-9.8c0,8.2-4.4,14.8-9.8,14.8h-95.2V29.5h85.3c10.8,0,19.7,13.3,19.7,29.5h9.8V0H184.6v14.8c9,0,16.4,6.6,16.4,14.8V233
			c0,8.2-7.4,14.8-16.4,14.8c-8.2,0-14.1-6.9-17.6-14.8l-45.1-93.3c27.9-10.7,46.3-37.5,46.3-67.4c0-39.9-25.8-72.2-65.6-72.2H7.4
			v14.8c9,0,16.4,6.6,16.4,14.8L17.2,233c0,8.1-6.5,14.7-14.6,14.8c0,0-0.1,0-0.1,0v14.8H31.8z M87.6,29.5
			c24.5,0,44.3,19.8,44.3,44.3s-19.8,44.3-44.3,44.3c0,0,0,0,0,0H53.2l2.5-88.6L87.6,29.5z"/>
	</g>
	<g transform="matrix(1, 0, 0, 1, -1.5, 0)">
		<path id="Path_29-2" class="st1" d="M381.3,29.5l47.6,233H465l64-233c2.6-7.9,7.4-14.8,16.4-14.8c9,0,16.4,6.6,16.4,14.8v233
			h147.7v-59.1h-9.8c0,16.2-8.9,29.5-19.7,29.5h-85.3v-88.6h95.2c5.4,0,9.8,6.6,9.8,14.8h9.8v-55.8h-9.8c0,8.2-4.4,14.8-9.8,14.8
			h-95.2V29.5h85.3c10.8,0,19.7,13.3,19.7,29.5h9.8V0H479.7v14.8c9,0,19.2,7.1,16.4,14.8l-48.7,178.2L410.8,29.5
			c-1.3-8,4.1-14.8,13.1-14.8V0h-59.1v14.8C374.1,14.8,379.3,21.5,381.3,29.5z"/>
	</g>
	<g transform="matrix(1, 0, 0, 1, -1.5, 0)">
		<path id="Path_30-2" class="st1" d="M758.6,262.5h23v-14.8c-9,0-15.9-7.1-13.1-14.8l30-88.6h46.1L857,233
			c1.3,8-4.1,14.8-13.1,14.8v14.8h210v-59.1h-9.8c0,16.2-8.9,29.5-19.7,29.5h-68.9V29.5c0-8.2,7.4-14.8,16.4-14.8V0h-65.6v14.8
			c9,0,16.4,6.6,16.4,14.8V233c0,8.2-7.4,14.8-16.4,14.8s-15.1-6.9-16.4-14.8L861.1,29.2c-1.6-7.7,6.7-14.4,14.8-14.4V0h-79.6v14.8
			c8,0,17.6,6.6,14.8,14.4L742.2,233c-4.3,8.7-7.1,12-16.4,14.8v14.8H758.6L758.6,262.5z M807.3,118.1l23.8-70.2l9.8,70.2
			L807.3,118.1z"/>
	</g>
	<g transform="matrix(1, 0, 0, 1, -1.5, 0)">
		<path id="Path_31-2" class="st1" d="M1.5,309.7l453.3,34.5l32.3,19.4l-35.6-48.9L1.5,309.7z"/>
	</g>
	<g transform="matrix(1, 0, 0, 1, -1.5, 0)">
		<path id="Path_32-2" class="st1" d="M601.6,314.7L566,363.5l32.3-19.4l453.1-34.5L601.6,314.7z"/>
	</g>
	<g transform="matrix(1, 0, 0, 1, -1.5, 0)">
		<path id="Path_33-2" class="st1" d="M526.5,252.8l-30.7,66.3l30.7,72.3l30.7-72.3L526.5,252.8z"/>
	</g>
</g>
</svg>
